<svg xmlns="http://www.w3.org/2000/svg" width="64" height="94" viewBox="0 0 64 94"><title>Agent Viewer chair executive</title><g stroke-linejoin="round"><ellipse cx="32" cy="86" rx="24" ry="5" fill="#0F172A" opacity="0.09"/><rect x="15" y="6" width="34" height="45" rx="12" fill="#1E3A8A" stroke="#334155" stroke-width="1.8"/><rect x="19" y="12" width="26" height="29" rx="8" fill="#334155"/><path d="M12 48L12 65" stroke="#334155" stroke-width="4" stroke-linecap="round" fill="none"/><path d="M52 48L52 65" stroke="#334155" stroke-width="4" stroke-linecap="round" fill="none"/><rect x="10" y="46" width="11" height="5" rx="2" fill="#64748B" stroke="#334155" stroke-width="1.8"/><rect x="43" y="46" width="11" height="5" rx="2" fill="#64748B" stroke="#334155" stroke-width="1.8"/><rect x="12" y="57" width="40" height="13" rx="7" fill="#1E3A8A" stroke="#334155" stroke-width="1.8"/><path d="M32 70L32 83" stroke="#334155" stroke-width="5" stroke-linecap="round" fill="none"/><path d="M32 81L12 85" stroke="#334155" stroke-width="2" stroke-linecap="round" fill="none"/><path d="M32 81L52 85" stroke="#334155" stroke-width="2" stroke-linecap="round" fill="none"/><path d="M32 81L32 88" stroke="#334155" stroke-width="2" stroke-linecap="round" fill="none"/><circle cx="12" cy="86" r="3" fill="#64748B" stroke="#334155" stroke-width="1.8"/><circle cx="52" cy="86" r="3" fill="#64748B" stroke="#334155" stroke-width="1.8"/><circle cx="32" cy="88" r="3" fill="#64748B" stroke="#334155" stroke-width="1.8"/></g></svg>
