<svg xmlns="http://www.w3.org/2000/svg" width="72" height="102" viewBox="0 0 72 102"><title>Agent Viewer plant floor</title><g stroke-linejoin="round"><g transform="scale(1)"><ellipse cx="36" cy="94" rx="23" ry="5" fill="#0F172A" opacity="0.09"/><path d="M25 61H49L45 91H29Z" fill="#E4AE81" stroke="#334155" stroke-width="1.8" stroke-linecap="round" stroke-linejoin="round"/><ellipse cx="36" cy="61" rx="12" ry="4" fill="#8B6549" stroke="#334155" stroke-width="1.8"/><path d="M36 66L36 21" stroke="#166534" stroke-width="3" stroke-linecap="round" fill="none"/><path d="M35 43C13 47 9 29 14 25C29 23 35 33 35 43Z" fill="#16A34A" stroke="#334155" stroke-width="1.8" stroke-linecap="round" stroke-linejoin="round"/><path d="M37 33C57 33 63 15 58 11C42 12 37 21 37 33Z" fill="#0D9488" stroke="#334155" stroke-width="1.8" stroke-linecap="round" stroke-linejoin="round"/><path d="M36 57C55 59 65 44 60 37C46 38 36 49 36 57Z" fill="#22A86E" stroke="#334155" stroke-width="1.8" stroke-linecap="round" stroke-linejoin="round"/><path d="M34 28C20 25 19 10 24 7C35 8 39 19 34 28Z" fill="#4CB88D" stroke="#334155" stroke-width="1.8" stroke-linecap="round" stroke-linejoin="round"/></g></g></svg>
